<?xml version="1.0" encoding="utf-8"?>
<!-- Generator: Adobe Illustrator 19.0.0, SVG Export Plug-In . SVG Version: 6.00 Build 0)  -->
<svg version="1.1" xmlns="http://www.w3.org/2000/svg" xmlns:xlink="http://www.w3.org/1999/xlink" x="0px" y="0px"
	 viewBox="0 0 100 100" style="enable-background:new 0 0 100 100;" xml:space="preserve">
<style type="text/css">
	.st0{display:none;}
	.st1{display:inline;fill:url(#SVGID_1_);}
	.st2{display:none;fill:#FFFFFF;}
	.st3{display:none;fill:none;}
	.st4{fill:#FFFFFF;}
	.st5{display:inline;fill:#FFFFFF;}
	.st6{display:inline;fill-rule:evenodd;clip-rule:evenodd;fill:#FFFFFF;}
	.st7{display:inline;}
</style>
<g id="fond" class="st0">
	<linearGradient id="SVGID_1_" gradientUnits="userSpaceOnUse" x1="-657.2489" y1="150.2276" x2="86.2776" y2="-370.7202">
		<stop  offset="0" style="stop-color:#00A9CC"/>
		<stop  offset="0.1978" style="stop-color:#04AACA"/>
		<stop  offset="0.3808" style="stop-color:#0FADC2"/>
		<stop  offset="0.5579" style="stop-color:#22B2B5"/>
		<stop  offset="0.7314" style="stop-color:#3CBAA3"/>
		<stop  offset="0.9008" style="stop-color:#5EC38D"/>
		<stop  offset="1" style="stop-color:#75CA7D"/>
	</linearGradient>
	<rect x="-698.1" y="-377.9" class="st1" width="840" height="525"/>
</g>
<g id="tout">
	<circle class="st2" cx="-169.3" cy="-59.9" r="50.6"/>
	<path class="st2" d="M-338.1-59.9c0,28-22.7,50.6-50.6,50.6c-28,0-50.6-22.7-50.6-50.6c0-28,22.7-50.6,50.6-50.6
		C-360.7-110.5-338.1-87.8-338.1-59.9z"/>
	<circle class="st2" cx="-279" cy="-59.9" r="50.6"/>
	<circle class="st2" cx="-59.6" cy="-59.9" r="50.6"/>
	<path class="st2" d="M-118.7,49.8c0,28-22.7,50.6-50.6,50.6c-28,0-50.6-22.7-50.6-50.6c0-28,22.7-50.6,50.6-50.6
		C-141.3-0.8-118.7,21.9-118.7,49.8z"/>
	<path class="st2" d="M-338.1,49.8c0,28-22.7,50.6-50.6,50.6c-28,0-50.6-22.7-50.6-50.6c0-28,22.7-50.6,50.6-50.6
		C-360.7-0.8-338.1,21.9-338.1,49.8z"/>
	<path class="st2" d="M-228.4,49.8c0,28-22.7,50.6-50.6,50.6c-28,0-50.6-22.7-50.6-50.6c0-28,22.7-50.6,50.6-50.6
		C-251-0.8-228.4,21.9-228.4,49.8z"/>
	<circle class="st2" cx="-498.4" cy="-59.9" r="50.6"/>
	<path class="st2" d="M-447.8,49.8c0,28-22.7,50.6-50.6,50.6c-28,0-50.6-22.7-50.6-50.6c0-28,22.7-50.6,50.6-50.6
		C-470.4-0.8-447.8,21.9-447.8,49.8z"/>
	<circle class="st2" cx="-607.9" cy="-59.9" r="50.6"/>
	<path class="st2" d="M-557.3,49.8c0,28-22.7,50.6-50.6,50.6c-28,0-50.6-22.7-50.6-50.6c0-28,22.7-50.6,50.6-50.6
		C-580-0.8-557.3,21.9-557.3,49.8z"/>
	<path class="st3" d="M-9,49.8c0,28-22.7,50.6-50.6,50.6c-28,0-50.6-22.7-50.6-50.6c0-28,22.7-50.6,50.6-50.6
		C-31.7-0.8-9,21.9-9,49.8z"/>
	<g>
		<path d="M67,35.2c-0.6,0.2-1.3,0.1-1.7-0.4c-0.4-0.4-0.6-1.1-0.4-1.7l9-24.2c-7-4.1-15.2-6.4-23.9-6.4C23.8,2.5,2.5,23.8,2.5,50
			c0,26.2,21.3,47.5,47.5,47.5c26.2,0,47.5-21.3,47.5-47.5c0-8.7-2.3-16.9-6.4-23.9L67,35.2z M72.4,63.5c-0.2,0.9-0.4,1.6-0.6,2.1
			c-0.4,1-1.7,2.1-3.7,3.2c-1.9,1-4.1,1.8-5.7,1.6c-6.8-0.9-13.8-3.6-21.4-11.2c0,0,0,0,0,0c0,0,0,0,0,0
			c-7.6-7.6-10.4-14.7-11.2-21.4c-0.2-1.6,0.5-3.8,1.6-5.7c1.1-2.1,2.2-3.3,3.2-3.7c0.5-0.2,1.2-0.4,2.1-0.6
			c0.9-0.2,1.6-0.3,2.2-0.3c0.3,0,0.5,0,0.6,0.1c0.4,0.1,0.9,0.9,1.6,2.3c0.2,0.4,0.5,0.9,0.9,1.7c0.4,0.7,0.7,1.3,1.1,1.9
			c0.3,0.6,0.6,1.1,0.9,1.6c0.1,0.1,0.2,0.3,0.5,0.8c0.3,0.4,0.5,0.8,0.7,1.1c0.1,0.3,0.2,0.6,0.2,0.9c0,0.4-0.3,0.9-0.9,1.5
			c-0.6,0.6-1.2,1.2-1.9,1.7c-0.7,0.5-1.3,1.1-1.9,1.6c-0.6,0.6-0.9,1-0.9,1.4c0,0.2,0,0.4,0.2,0.7c0.1,0.3,0.2,0.5,0.2,0.6
			c0.1,0.1,0.2,0.4,0.4,0.7c0.2,0.3,0.3,0.5,0.4,0.6c1.6,2.8,3.3,5.2,5.3,7.2c2,2,4.4,3.8,7.2,5.3c0.1,0,0.2,0.1,0.6,0.4
			c0.4,0.2,0.6,0.3,0.7,0.4c0.1,0.1,0.3,0.2,0.6,0.2c0.3,0.1,0.5,0.2,0.7,0.2c0.4,0,0.8-0.3,1.4-0.9c0.6-0.6,1.1-1.2,1.6-1.9
			c0.5-0.7,1.1-1.3,1.7-1.9c0.6-0.6,1.1-0.9,1.5-0.9c0.3,0,0.6,0.1,0.9,0.2c0.3,0.1,0.7,0.4,1.1,0.7c0.4,0.3,0.7,0.5,0.8,0.5
			c0.5,0.3,1.1,0.6,1.6,0.9c0.6,0.3,1.2,0.7,1.9,1.1c0.7,0.4,1.3,0.7,1.7,0.9c1.4,0.7,2.2,1.3,2.3,1.6c0.1,0.1,0.1,0.4,0.1,0.6
			C72.7,61.9,72.6,62.6,72.4,63.5z"/>
		<g class="st0">
			<path class="st4" d="M15.4,111.3c-0.1-0.8-0.8-2.3-3-2.3c-1.5,0-2.5,0.9-2.5,2c0,0.9,0.5,1.5,1.8,1.7l2.4,0.5
				c3.5,0.6,5.3,2.9,5.3,5.5c0,2.9-2.4,5.8-6.7,5.8c-5,0-7.2-3.3-7.5-5.8l3.7-0.9c0.2,1.7,1.3,3.1,3.8,3.1c1.6,0,2.6-0.8,2.6-1.9
				c0-0.9-0.7-1.6-2-1.8l-2.5-0.5c-3.1-0.6-5-2.6-5-5.4c0-3.4,3-5.9,6.5-5.9c4.6,0,6.3,2.7,6.7,4.9L15.4,111.3z"/>
			<path class="st4" d="M23,124h-3.9v-12h3.8v1.4c0.7-1.1,2.3-1.7,3.6-1.7c3.2,0,4.7,2.2,4.7,4.8v7.5h-3.9v-6.9
				c0-1.2-0.7-2.1-2.1-2.1c-1.3,0-2.1,0.9-2.1,2.1V124z"/>
			<path class="st4" d="M34.5,117.1l3-0.4c0.7-0.1,0.9-0.4,0.9-0.8c0-0.7-0.6-1.3-1.9-1.3c-1.4,0-2.1,0.9-2.2,1.8l-3.4-0.7
				c0.2-1.7,1.9-4,5.6-4c4.1,0,5.7,2.2,5.7,4.6v5.9c0,0.9,0.1,1.7,0.2,1.9h-3.5c0-0.1-0.1-0.5-0.1-1.4c-0.7,1-1.9,1.7-3.6,1.7
				c-2.8,0-4.4-1.7-4.4-3.7C30.8,118.6,32.4,117.4,34.5,117.1z M38.5,119.3v-0.5l-2.4,0.4c-0.8,0.1-1.4,0.5-1.4,1.3
				c0,0.6,0.4,1.2,1.5,1.2C37.3,121.7,38.5,121.2,38.5,119.3z"/>
			<path class="st4" d="M43.4,128.6V112h3.8v1.2c0.5-0.8,1.9-1.5,3.7-1.5c3.7,0,5.9,2.7,5.9,6.3c0,3.7-2.5,6.3-6.1,6.3
				c-1.7,0-2.9-0.5-3.5-1.2v5.5H43.4z M50.1,115.1c-1.5,0-2.9,1-2.9,3c0,2,1.4,3,2.9,3c1.5,0,2.9-1,2.9-3
				C53,116,51.7,115.1,50.1,115.1z"/>
			<path class="st4" d="M56.3,115c0-5.7,4.3-9.5,9.4-9.5c5.5,0,7.9,3.5,8.5,6.2l-3.8,1.2c-0.3-1.3-1.4-3.4-4.7-3.4
				c-2.4,0-5.2,1.8-5.2,5.6c0,3.4,2.5,5.4,5.2,5.4c3.2,0,4.5-2.1,4.8-3.5l3.9,1.1c-0.6,2.6-3,6.5-8.7,6.5
				C60.5,124.4,56.3,120.6,56.3,115z"/>
			<path class="st4" d="M77.3,117.1l3-0.4c0.7-0.1,0.9-0.4,0.9-0.8c0-0.7-0.6-1.3-1.9-1.3c-1.4,0-2.1,0.9-2.2,1.8l-3.4-0.7
				c0.2-1.7,1.9-4,5.6-4c4.1,0,5.7,2.2,5.7,4.6v5.9c0,0.9,0.1,1.7,0.2,1.9h-3.5c0-0.1-0.1-0.5-0.1-1.4c-0.7,1-1.9,1.7-3.6,1.7
				c-2.8,0-4.4-1.7-4.4-3.7C73.5,118.6,75.2,117.4,77.3,117.1z M81.2,119.3v-0.5l-2.4,0.4c-0.8,0.1-1.4,0.5-1.4,1.3
				c0,0.6,0.4,1.2,1.5,1.2C80.1,121.7,81.2,121.2,81.2,119.3z"/>
			<path class="st4" d="M86.2,124v-18.6h3.9V124H86.2z"/>
			<path class="st4" d="M91.2,124v-18.6h3.9V124H91.2z"/>
			<g>
				<path class="st5" d="M64.6,116.5c0.1,0,0.1,0,0.2,0l0.8-1.1l1.3,0.1c0,0,0,0,0.1,0c0,0,0.1,0,0.1-0.1c0-0.1,0-0.1,0-0.2l-2.3-2
					c0,0-0.1,0-0.2,0c0,0-0.1,0.1-0.1,0.1l0,3C64.5,116.4,64.6,116.5,64.6,116.5z"/>
				<path class="st6" d="M66.4,116.3C66.4,116.4,66.4,116.4,66.4,116.3l-0.6,0.3c0,0-0.1,0-0.1,0l-0.5-1.1c0,0,0-0.1,0-0.1l0.5-0.2
					c0,0,0.1,0,0.1,0L66.4,116.3z"/>
			</g>
			<g>
				<g class="st7">
					<path class="st4" d="M52,128.6h-0.4l-0.3,1.5h-0.9l0.8-4h1.4c0.8,0,1.2,0.4,1.2,1c0,0.7-0.4,1.1-1,1.3l0.6,1.6h-0.9L52,128.6z
						 M52.2,127.9c0.4,0,0.7-0.2,0.7-0.6c0-0.2-0.1-0.4-0.5-0.4h-0.5l-0.2,1H52.2z"/>
					<path class="st4" d="M56.7,127.3l-0.5,2.2c0,0.1,0,0.3,0,0.5c0,0,0,0.1,0,0.1h-0.8c0,0,0-0.1,0-0.1c0-0.1,0-0.2,0-0.2
						c-0.1,0.2-0.3,0.4-0.7,0.4c-0.7,0-1.1-0.5-1.1-1.2c0-1,0.6-1.6,1.4-1.6c0.5,0,0.7,0.3,0.8,0.4l0.1-0.3H56.7z M54.5,128.9
						c0,0.4,0.2,0.5,0.5,0.5c0.3,0,0.6-0.3,0.6-0.8c0-0.3-0.2-0.5-0.5-0.5C54.7,128,54.5,128.5,54.5,128.9z"/>
					<path class="st4" d="M58.7,127.3c0.7,0,1.1,0.5,1.1,1.2c0,1-0.7,1.7-1.5,1.7c-0.4,0-0.7-0.2-0.8-0.4l-0.3,1.4h-0.9l0.7-3.4
						c0-0.2,0.1-0.4,0.1-0.5H58c0,0.1,0,0.2,0,0.3C58.1,127.4,58.4,127.3,58.7,127.3z M57.7,128.9c0,0.4,0.2,0.6,0.5,0.6
						c0.3,0,0.7-0.3,0.7-0.8c0-0.4-0.2-0.6-0.5-0.6C58,128,57.7,128.4,57.7,128.9z"/>
					<path class="st4" d="M61.8,127.3c0.7,0,1.1,0.5,1.1,1.2c0,1-0.7,1.7-1.5,1.7c-0.4,0-0.7-0.2-0.8-0.4l-0.3,1.4h-0.8l0.7-3.4
						c0-0.2,0-0.4,0-0.5h0.8c0,0.1,0,0.2,0,0.3C61.2,127.4,61.5,127.3,61.8,127.3z M60.9,128.9c0,0.4,0.2,0.6,0.5,0.6
						c0.3,0,0.7-0.3,0.7-0.8c0-0.4-0.2-0.6-0.5-0.6C61.1,128,60.9,128.4,60.9,128.9z"/>
					<path class="st4" d="M64.7,128.2c-0.3,0-0.6,0.2-0.7,0.7l-0.3,1.3h-0.8l0.5-2.3c0-0.2,0.1-0.4,0.1-0.5h0.8c0,0,0,0.2,0,0.3
						c0.2-0.2,0.4-0.3,0.7-0.3c0.1,0,0.2,0,0.3,0.1l-0.2,0.8C65,128.2,64.9,128.2,64.7,128.2z"/>
					<path class="st4" d="M66.4,130.2c-0.8,0-1.3-0.6-1.3-1.3c0-1,0.7-1.6,1.6-1.6c0.8,0,1.3,0.6,1.3,1.3
						C67.9,129.4,67.3,130.2,66.4,130.2z M65.9,128.9c0,0.4,0.2,0.6,0.5,0.6c0.3,0,0.7-0.3,0.7-0.8c0-0.4-0.2-0.5-0.5-0.6
						C66.2,128,65.9,128.4,65.9,128.9z"/>
					<path class="st4" d="M70.1,128.4c0-0.2-0.2-0.4-0.5-0.4c-0.3,0-0.7,0.3-0.7,0.8c0,0.3,0.2,0.6,0.6,0.6c0.3,0,0.5-0.2,0.5-0.4
						l0.7,0.3c-0.2,0.4-0.6,0.9-1.3,0.9c-0.7,0-1.3-0.5-1.3-1.3c0-1,0.8-1.6,1.6-1.6c0.8,0,1.1,0.5,1.2,1L70.1,128.4z"/>
					<path class="st4" d="M72.5,130.1l0.3-1.5c0-0.1,0-0.2,0-0.2c0-0.2-0.1-0.4-0.4-0.4c-0.3,0-0.4,0.2-0.5,0.5l-0.3,1.6h-0.8l0.8-4
						h0.9l-0.3,1.5c0.2-0.2,0.4-0.3,0.7-0.3c0.6,0,0.9,0.4,0.9,0.9c0,0.1,0,0.2,0,0.4l-0.3,1.6H72.5z"/>
					<path class="st4" d="M75.1,130.2c-0.8,0-1.3-0.6-1.3-1.3c0-1,0.7-1.6,1.6-1.6c0.8,0,1.3,0.6,1.3,1.3
						C76.7,129.4,76.1,130.2,75.1,130.2z M74.7,128.9c0,0.4,0.2,0.6,0.5,0.6c0.3,0,0.7-0.3,0.7-0.8c0-0.4-0.2-0.5-0.5-0.6
						C74.9,128,74.7,128.4,74.7,128.9z"/>
					<path class="st4" d="M78.4,130.1l0.3-1.5c0-0.1,0-0.2,0-0.2c0-0.2-0.1-0.4-0.4-0.4c-0.3,0-0.4,0.2-0.5,0.5l-0.3,1.6h-0.8
						l0.5-2.3c0-0.2,0.1-0.3,0.1-0.5h0.8c0,0,0,0.2,0,0.3c0.2-0.2,0.5-0.3,0.7-0.3c0.6,0,0.9,0.4,0.9,0.9c0,0.1,0,0.2,0,0.3
						l-0.4,1.7H78.4z"/>
					<path class="st4" d="M80.4,129.2C80.4,129.2,80.4,129.2,80.4,129.2c0,0.3,0.1,0.4,0.4,0.4c0.2,0,0.3-0.1,0.3-0.2
						c0-0.1,0-0.2-0.2-0.2l-0.3-0.1c-0.5-0.2-0.6-0.5-0.6-0.8c0-0.5,0.4-0.9,1.1-0.9c0.9,0,1,0.5,1.1,0.9l-0.7,0.1
						c0-0.1,0-0.3-0.3-0.3c-0.2,0-0.3,0.1-0.3,0.2c0,0.1,0.1,0.2,0.2,0.2l0.3,0.1c0.5,0.2,0.6,0.5,0.6,0.8c0,0.5-0.4,0.9-1.1,0.9
						c-0.9,0-1.1-0.6-1.1-0.9v0L80.4,129.2z"/>
					<path class="st4" d="M82.1,128.8l0.2-0.8H84l-0.2,0.8H82.1z"/>
					<path class="st4" d="M85.6,130.1l0.3-1.5c0-0.1,0-0.2,0-0.2c0-0.2-0.1-0.4-0.4-0.4c-0.3,0-0.4,0.2-0.5,0.5l-0.3,1.6h-0.8
						l0.5-2.3c0-0.2,0.1-0.3,0.1-0.5h0.8c0,0,0,0.2,0,0.3c0.2-0.2,0.5-0.3,0.7-0.3c0.6,0,0.9,0.4,0.9,0.9c0,0.1,0,0.2,0,0.3
						l-0.3,1.7H85.6z"/>
					<path class="st4" d="M88.3,130.2c-0.8,0-1.3-0.6-1.3-1.3c0-1,0.7-1.6,1.6-1.6c0.8,0,1.3,0.6,1.3,1.3
						C89.9,129.4,89.2,130.2,88.3,130.2z M87.8,128.9c0,0.4,0.2,0.6,0.5,0.6c0.3,0,0.7-0.3,0.7-0.8c0-0.4-0.2-0.5-0.5-0.6
						C88.1,128,87.8,128.4,87.8,128.9z"/>
					<path class="st4" d="M91.2,127.3l-0.3,1.6c0,0.1,0,0.1,0,0.2c0,0.2,0.1,0.4,0.4,0.4c0.3,0,0.4-0.2,0.5-0.5l0.3-1.6h0.8
						l-0.5,2.3c0,0.1-0.1,0.3-0.1,0.5h-0.8c0,0,0-0.1,0-0.1c0-0.1,0-0.1,0-0.2c-0.1,0.2-0.4,0.3-0.7,0.3c-0.6,0-0.9-0.4-0.9-0.9
						c0-0.1,0-0.2,0-0.3l0.3-1.6H91.2z"/>
					<path class="st4" d="M93.5,129.2C93.5,129.2,93.5,129.2,93.5,129.2c0,0.3,0.1,0.4,0.4,0.4c0.2,0,0.3-0.1,0.3-0.2
						c0-0.1,0-0.2-0.2-0.2l-0.3-0.1c-0.5-0.2-0.6-0.5-0.6-0.8c0-0.5,0.4-0.9,1.1-0.9c0.9,0,1,0.5,1.1,0.9l-0.7,0.1
						c0-0.1,0-0.3-0.3-0.3c-0.2,0-0.3,0.1-0.3,0.2c0,0.1,0.1,0.2,0.1,0.2l0.3,0.1c0.5,0.2,0.6,0.5,0.6,0.8c0,0.5-0.4,0.9-1.1,0.9
						c-0.9,0-1.1-0.6-1.1-0.9v0L93.5,129.2z"/>
				</g>
			</g>
		</g>
	</g>
	<rect x="-111.7" y="21.4" style="fill:none;" width="101.2" height="63.6"/>
	<text transform="matrix(1 0 0 1 -93.3168 27.4751)" class="st0"><tspan x="0" y="0" class="st5" style="font-family:'CircularStd-BlackItalic'; font-size:8.4379px;">SnapCall, le meilleur</tspan><tspan x="-15.1" y="10.1" class="st5" style="font-family:'CircularStd-BlackItalic'; font-size:8.4379px;">des outils webmarketing </tspan><tspan x="31.3" y="20.3" class="st5" style="font-family:'CircularStd-BlackItalic'; font-size:8.4379px;">pour toucher</tspan><tspan x="7" y="30.4" class="st5" style="font-family:'CircularStd-BlackItalic'; font-size:8.4379px;">la bonne personne,</tspan><tspan x="-2.2" y="40.5" class="st5" style="font-family:'CircularStd-BlackItalic'; font-size:8.4379px;">dans le bon contexte,</tspan><tspan x="17.9" y="50.6" class="st5" style="font-family:'CircularStd-BlackItalic'; font-size:8.4379px;">au bon moment.</tspan></text>
	<g class="st0">
		<defs>
			<path id="SVGID_2_" d="M100.7-59.9c0,28-22.7,50.6-50.6,50.6c-28,0-50.6-22.7-50.6-50.6c0-28,22.7-50.6,50.6-50.6
				C78-110.5,100.7-87.8,100.7-59.9z"/>
		</defs>
		<use xlink:href="#SVGID_2_"  style="display:inline;overflow:visible;fill:#FFFFFF;"/>
		<clipPath id="SVGID_3_" class="st7">
			<use xlink:href="#SVGID_2_"  style="overflow:visible;"/>
		</clipPath>
		<g transform="matrix(1 0 0 1 3.814697e-06 0)" style="display:inline;clip-path:url(#SVGID_3_);">
			
				<image style="overflow:visible;" width="500" height="332" xlink:href="B52863FEF5337B88.jpg"  transform="matrix(0.4369 0 0 0.4369 -61.98 -144.1548)">
			</image>
		</g>
	</g>
	<text transform="matrix(1 0 0 1 -660.1611 -144.0463)" class="st2" style="font-family:'Khand-Bold'; font-size:36.8169px;">La qualité est une valeur importante de votre site ?</text>
	
		<text transform="matrix(1 0 0 1 -659.5068 -122.7788)" class="st2" style="font-family:'CircularStd-Black'; font-size:14.9058px;">Avec Snapcall, vos clients web évaluent le conseil reçu, ils en sont fier, vous pouvez d’ailleurs les remercier.</text>
</g>
</svg>
