<svg xmlns="http://www.w3.org/2000/svg" xmlns:xlink="http://www.w3.org/1999/xlink" version="1.1" x="0px" y="0px" viewBox="NaN NaN NaN 125"><g transform="translate(0, 0)"><path d="M50,0.5 C55.247,0.5 59.5,4.753 59.5,10 C59.5,15.247 55.247,19.5 50,19.5 C44.753,19.5 40.5,15.247 40.5,10 C40.5,4.753 44.753,0.5 50,0.5 z M50,3.5 C46.41,3.5 43.5,6.41 43.5,10 C43.5,13.59 46.41,16.5 50,16.5 C53.59,16.5 56.5,13.59 56.5,10 C56.5,6.41 53.59,3.5 50,3.5 z" fill="#000000"/><path d="M50,80.5 C55.247,80.5 59.5,84.753 59.5,90 C59.5,95.247 55.247,99.5 50,99.5 C44.753,99.5 40.5,95.247 40.5,90 C40.5,84.753 44.753,80.5 50,80.5 z M50,83.5 C46.41,83.5 43.5,86.41 43.5,90 C43.5,93.59 46.41,96.5 50,96.5 C53.59,96.5 56.5,93.59 56.5,90 C56.5,86.41 53.59,83.5 50,83.5 z" fill="#000000"/><path d="M90,40.5 C95.247,40.5 99.5,44.753 99.5,50 C99.5,55.247 95.247,59.5 90,59.5 C84.753,59.5 80.5,55.247 80.5,50 C80.5,44.753 84.753,40.5 90,40.5 z M90,43.5 C86.41,43.5 83.5,46.41 83.5,50 C83.5,53.59 86.41,56.5 90,56.5 C93.59,56.5 96.5,53.59 96.5,50 C96.5,46.41 93.59,43.5 90,43.5 z" fill="#000000"/><path d="M10,40.5 C15.247,40.5 19.5,44.753 19.5,50 C19.5,55.247 15.247,59.5 10,59.5 C4.753,59.5 0.5,55.247 0.5,50 C0.5,44.753 4.753,40.5 10,40.5 z M10,43.5 C6.41,43.5 3.5,46.41 3.5,50 C3.5,53.59 6.41,56.5 10,56.5 C13.59,56.5 16.5,53.59 16.5,50 C16.5,46.41 13.59,43.5 10,43.5 z" fill="#000000"/><path d="M14.998,14.998 C18.708,11.288 24.723,11.288 28.433,14.998 C32.143,18.708 32.143,24.723 28.433,28.433 C24.723,32.143 18.708,32.143 14.998,28.433 C11.288,24.723 11.288,18.708 14.998,14.998 z M17.12,17.119 C14.581,19.658 14.581,23.773 17.12,26.312 C19.658,28.85 23.774,28.85 26.312,26.312 C28.85,23.773 28.85,19.658 26.312,17.119 C23.774,14.581 19.658,14.581 17.12,17.119 z" fill="#000000"/><path d="M71.567,71.567 C75.277,67.857 81.292,67.857 85.002,71.567 C88.712,75.277 88.712,81.292 85.002,85.002 C81.292,88.712 75.277,88.712 71.567,85.002 C67.857,81.292 67.857,75.277 71.567,71.567 z M73.688,73.688 C71.15,76.226 71.15,80.342 73.688,82.88 C76.226,85.419 80.342,85.419 82.88,82.88 C85.419,80.342 85.419,76.226 82.88,73.688 C80.342,71.15 76.226,71.15 73.688,73.688 z" fill="#000000"/><path d="M71.567,14.998 C75.277,11.288 81.292,11.288 85.002,14.998 C88.712,18.708 88.712,24.723 85.002,28.433 C81.292,32.143 75.277,32.143 71.567,28.433 C67.857,24.723 67.857,18.708 71.567,14.998 z M73.688,17.119 C71.15,19.658 71.15,23.773 73.688,26.312 C76.226,28.85 80.342,28.85 82.88,26.312 C85.419,23.773 85.419,19.658 82.88,17.119 C80.342,14.581 76.226,14.581 73.688,17.119 z" fill="#000000"/><path d="M14.998,71.566 C18.708,67.857 24.723,67.857 28.433,71.567 C32.143,75.277 32.143,81.292 28.433,85.002 C24.723,88.712 18.708,88.712 14.998,85.002 C11.288,81.292 11.288,75.277 14.998,71.567 z M17.119,73.688 C14.581,76.226 14.581,80.342 17.119,82.88 C19.658,85.419 23.774,85.419 26.312,82.88 C28.85,80.342 28.85,76.226 26.312,73.688 C23.774,71.15 19.658,71.15 17.119,73.688 z" fill="#000000"/><path d="M29.998,82.9 C33.393,84.86 37.013,86.6 40.883,87.391 C40.484,89.346 40.577,88.472 40.5,90 L40.519,90.375 C36.213,89.365 31.833,87.756 28.143,85.264 L28.433,85.001 C29.455,83.871 28.906,84.55 29.998,82.9 z" fill="#000000"/><path d="M70.002,82.9 C71.093,84.55 70.545,83.871 71.567,85.002 L71.857,85.264 C68.086,87.622 63.852,89.482 59.481,90.375 L59.5,90 C59.229,87.921 59.489,88.759 58.957,87.424 C62.929,86.683 66.499,84.808 70.002,82.9 z" fill="#000000"/><path d="M87.391,59.117 C89.346,59.516 88.472,59.423 90,59.5 L90.375,59.481 C89.364,63.786 87.757,68.167 85.264,71.857 L85.002,71.566 C83.59,70.408 84.318,70.89 82.842,70.088 C84.871,66.728 86.601,62.983 87.391,59.117 z" fill="#000000"/><path d="M12.609,59.117 C13.364,63.038 15.225,66.56 17.112,70.021 C15.686,70.882 16.399,70.378 14.998,71.566 L14.998,71.567 L14.736,71.857 C12.377,68.086 10.518,63.852 9.624,59.481 L10,59.5 C11.528,59.423 10.654,59.516 12.609,59.117 z" fill="#000000"/><path d="M85.264,28.143 C87.622,31.914 89.482,36.148 90.376,40.519 L90,40.5 C88.472,40.577 89.346,40.484 87.391,40.883 C86.637,36.97 84.782,33.453 82.9,29.998 C84.551,28.906 83.871,29.455 85.002,28.433 L85.264,28.143 z" fill="#000000"/><path d="M14.736,28.143 L14.998,28.433 C16.129,29.455 15.449,28.906 17.1,29.998 C15.14,33.393 13.4,37.013 12.609,40.883 C10.654,40.484 11.528,40.577 10,40.5 L10,40.5 L9.625,40.519 C10.635,36.213 12.244,31.833 14.736,28.143 z" fill="#000000"/><path d="M40.519,9.624 L40.5,10 C40.577,11.528 40.484,10.654 40.883,12.609 C36.97,13.363 33.453,15.218 29.998,17.1 C28.907,15.449 29.455,16.129 28.433,14.998 L28.127,14.747 C31.902,12.382 36.142,10.52 40.519,9.624 z" fill="#000000"/><path d="M59.45,9.618 C63.769,10.627 68.161,12.239 71.861,14.739 L71.567,14.998 C70.545,16.129 71.093,15.449 70.002,17.1 C66.607,15.14 62.986,13.4 59.117,12.609 C59.516,10.654 59.423,11.528 59.5,10 L59.45,9.618 z" fill="#000000"/><path d="M50,17.85 C45.665,17.85 42.15,14.335 42.15,10 C42.15,5.665 45.665,2.15 50,2.15 C54.335,2.15 57.85,5.665 57.85,10 C57.85,14.335 54.335,17.85 50,17.85 z" fill="#000000"/><path d="M78.284,29.566 C73.949,29.566 70.434,26.051 70.434,21.716 C70.434,17.38 73.949,13.866 78.284,13.866 C82.62,13.866 86.134,17.38 86.134,21.716 C86.134,26.051 82.62,29.566 78.284,29.566 z" fill="#000000"/><path d="M90,57.85 C85.665,57.85 82.15,54.335 82.15,50 C82.15,45.664 85.665,42.15 90,42.15 C94.335,42.15 97.85,45.664 97.85,50 C97.85,54.335 94.335,57.85 90,57.85 z" fill="#000000"/><path d="M78.284,86.134 C73.949,86.134 70.434,82.62 70.434,78.284 C70.434,73.949 73.949,70.434 78.284,70.434 C82.62,70.434 86.134,73.949 86.134,78.284 C86.134,82.62 82.62,86.134 78.284,86.134 z" fill="#000000"/><path d="M50,97.85 C45.665,97.85 42.15,94.335 42.15,90 C42.15,85.665 45.665,82.15 50,82.15 C54.335,82.15 57.85,85.665 57.85,90 C57.85,94.335 54.335,97.85 50,97.85 z" fill="#000000"/></g><text x="NaN" y="NaN" fill="#000000" font-size="5px" font-weight="bold" font-family="'Helvetica Neue', Helvetica, Arial-Unicode, Arial, Sans-serif">Created by Holvonix</text><text x="NaN" y="NaN" fill="#000000" font-size="5px" font-weight="bold" font-family="'Helvetica Neue', Helvetica, Arial-Unicode, Arial, Sans-serif">from the Noun Project</text></svg>